<svg width="30" height="30" viewBox="0 0 30 30" fill="none" xmlns="http://www.w3.org/2000/svg">
<path fill-rule="evenodd" clip-rule="evenodd" d="M13.3891 0.0591682C12.1143 0.18751 10.3845 0.639139 9.16467 1.16206C8.2357 1.56032 7.62017 1.89521 6.74064 2.4808C5.7784 3.1214 5.17863 3.61034 4.40148 4.38748C2.2684 6.52051 0.85687 9.16309 0.273502 12.1157C-0.382034 15.4335 0.153887 19.0493 1.74086 22.0152C2.08705 22.6622 2.87848 23.8488 3.37275 24.4619C4.83366 26.2741 6.94255 27.8572 9.16467 28.8099C11.8283 29.9519 14.9964 30.2803 17.8703 29.7125C19.8612 29.3192 21.5747 28.6128 23.2594 27.4912C24.2216 26.8506 24.8214 26.3617 25.5985 25.5845C27.7316 23.4515 29.1431 20.8089 29.7265 17.8563C30.382 14.5385 29.8461 10.9227 28.2591 7.95676C27.913 7.30983 27.1215 6.12318 26.6272 5.51005C25.1663 3.69786 23.0574 2.11475 20.8353 1.16206C19.5656 0.6177 17.8832 0.187335 16.4982 0.052549C15.7503 -0.0202623 14.1437 -0.0168062 13.3891 0.0591682ZM16.7866 2.48484C20.4028 3.0029 23.5908 5.06416 25.6592 8.22164C26.323 9.23497 27.0003 10.8386 27.2914 12.0864C27.5334 13.1238 27.6066 13.7975 27.6066 14.986C27.6066 17.0379 27.2224 18.7142 26.338 20.5215C25.6899 21.8458 25.0048 22.7964 23.9076 23.8936C21.9101 25.8911 19.5664 27.0716 16.7573 27.4949C15.8448 27.6325 14.1552 27.6325 13.2427 27.4949C10.4336 27.0716 8.0899 25.8911 6.09237 23.8936C4.09489 21.8961 2.91445 19.5524 2.49105 16.7433C2.35351 15.8308 2.35351 14.1412 2.49105 13.2287C2.82582 11.0077 3.6319 9.09913 5.0016 7.28441C5.45763 6.68025 6.69425 5.44363 7.29841 4.9876C10.0916 2.87936 13.4172 2.00211 16.7866 2.48484ZM14.4435 6.16073C13.875 6.34905 13.4646 6.72002 13.2017 7.28312L13.0377 7.63458L13.0207 12.2324C13.0103 15.0234 13.0261 16.9746 13.0608 17.1975C13.1693 17.8941 13.5689 18.4412 14.1799 18.7294C14.4479 18.8558 14.5859 18.8814 15 18.8814C15.4141 18.8814 15.5521 18.8558 15.8201 18.7294C16.4311 18.4412 16.8307 17.8941 16.9392 17.1975C16.9739 16.9746 16.9897 15.0234 16.9793 12.2324L16.9623 7.63458L16.7969 7.27668C16.5966 6.84321 16.1879 6.42667 15.7908 6.25123C15.4333 6.09336 14.7796 6.04943 14.4435 6.16073ZM14.4435 20.0435C14.0721 20.1665 13.8756 20.2887 13.6118 20.5608C12.8357 21.361 12.8633 22.583 13.6748 23.3505C14.0645 23.7191 14.4318 23.8604 15 23.8604C15.5682 23.8604 15.9355 23.7191 16.3252 23.3505C17.1491 22.5714 17.1634 21.3239 16.3576 20.5324C16.2069 20.3845 15.9519 20.2052 15.7908 20.134C15.4333 19.9761 14.7796 19.9322 14.4435 20.0435Z" fill="#53262B"/>
</svg>
