<svg width="100" height="88" viewBox="0 0 100 88" fill="none" xmlns="http://www.w3.org/2000/svg">
<path fill-rule="evenodd" clip-rule="evenodd" d="M46.0833 0.0988619C45.8147 0.138323 44.9356 0.2653 44.1298 0.380948C38.54 1.18364 32.5625 3.64135 27.6661 7.15003C25.7678 8.51045 22.3142 11.7769 20.5951 13.8379C18.8188 15.9674 16.9724 18.816 15.7655 21.2881L14.7296 23.4104L11.0841 23.4131C7.12398 23.4163 5.97786 23.6224 4.23377 24.6444C3.18923 25.2565 1.52075 27.0002 0.996817 28.0269C0.000724852 29.9797 -0.0447918 30.4715 0.0188924 38.5934L0.0782789 46.1744L0.703596 47.4948C1.39904 48.9628 2.9681 50.7485 4.19353 51.4666C4.63346 51.7245 5.5055 52.1117 6.13141 52.327C7.18532 52.6895 7.77333 52.7186 14.0648 52.7186H20.8598L20.3764 51.3023C17.7376 43.5729 17.1927 37.587 18.5553 31.2981C21.9511 15.6247 36.6819 4.6517 52.5093 6.00548C59.1282 6.5716 64.6521 8.73159 69.8184 12.7736C75.978 17.5929 80.3071 24.7632 81.6687 32.4022C82.226 35.5288 82.226 40.409 81.6687 43.5415C80.4429 50.4303 77.2089 56.4479 72.1018 61.3414C66.3609 66.8429 59.3615 69.7975 51.0757 70.2175C48.2103 70.3627 46.7871 70.7217 45.3339 71.6661C42.433 73.5512 41.0513 76.2675 41.247 79.7002C41.3662 81.793 42.0718 83.4586 43.4822 84.9769C45.4386 87.0831 47.5986 87.9733 50.4494 87.8481C52.6789 87.7502 54.3355 87.0456 55.969 85.501C58.1302 83.4568 58.7811 81.6772 58.7811 77.8112V75.199L59.6113 74.989C61.5568 74.4967 64.6918 73.3168 66.6578 72.3369C74.3271 68.5149 80.1338 62.718 83.9965 55.0279L85.1424 52.7466L89.2991 52.6837L93.4558 52.621L94.7761 51.9956C96.2618 51.2918 98.0318 49.728 98.7716 48.4655C99.9336 46.4829 100 45.9203 100 38.0674C100 31.5706 99.9644 30.7597 99.632 29.6917C99.125 28.0629 98.4642 27.0041 97.2208 25.8279C95.0844 23.8076 93.7246 23.4161 88.8428 23.4161H85.1796L84.0807 21.2184C78.378 9.81266 67.4378 1.90136 55.096 0.258268C53.2413 0.0113453 47.3853 -0.0921908 46.0833 0.0988619ZM46.2519 11.8918C35.147 13.6513 26.4748 21.8275 24.0827 32.7929C23.574 35.125 23.5688 40.9875 24.0736 43.2965C24.829 46.7526 26.2308 50.0584 28.1427 52.8921C29.2279 54.5006 29.2441 54.7354 28.3601 56.071C27.5629 57.2756 26.028 58.2037 24.3506 58.4953L23.618 58.6227V61.5311V64.4397L38.0251 64.4389C53.8618 64.4381 54.2859 64.4127 57.9512 63.2455C67.0379 60.3523 73.8406 52.8069 75.8963 43.3418C76.3513 41.2467 76.4089 35.3782 75.995 33.2813C73.9076 22.7046 65.9621 14.5851 55.3431 12.1772C53.7508 11.816 47.8903 11.6322 46.2519 11.8918ZM41.1995 38.0674V40.9976H38.2693H35.339V38.0674V35.1371H38.2693H41.1995V38.0674ZM52.9206 38.0674V40.9976H49.9903H47.06V38.0674V35.1371H49.9903H52.9206V38.0674ZM64.6416 38.0674V40.9976H61.7113H58.7811V38.0674V35.1371H61.7113H64.6416V38.0674Z" fill="white"/>
</svg>
