<svg width="30" height="30" viewBox="0 0 30 30" fill="none" xmlns="http://www.w3.org/2000/svg">
<path fill-rule="evenodd" clip-rule="evenodd" d="M2.74026 0.0773162C0.875263 0.547404 -0.319231 2.45558 0.0753401 4.33453C0.158355 4.73004 0.477996 5.42943 0.720715 5.74678C0.824059 5.88188 2.92715 8.01579 5.39429 10.4888L9.87998 14.9853L5.39429 19.4817C2.92715 21.9547 0.824059 24.0886 0.720715 24.2237C0.459249 24.5656 0.151852 25.2558 0.0662594 25.6932C-0.0329254 26.2 0.0213831 27.0457 0.183723 27.5225C0.440912 28.2779 0.924123 28.9158 1.57735 29.3621C2.82679 30.2158 4.58576 30.1775 5.77181 29.2706C5.90562 29.1683 8.03848 27.0661 10.5115 24.5989L15.0079 20.1132L19.5044 24.5989C21.9774 27.0661 24.1103 29.1683 24.2441 29.2706C25.1464 29.9605 26.5109 30.1718 27.5968 29.79C28.3408 29.5285 28.9395 29.0676 29.3877 28.4115C30.2384 27.1665 30.1987 25.4056 29.2933 24.2214C29.191 24.0876 27.0887 21.9547 24.6216 19.4817L20.1359 14.9853L24.6216 10.4888C27.0887 8.01579 29.1918 5.88188 29.2952 5.74678C29.5566 5.40494 29.864 4.71469 29.9496 4.27735C29.9917 4.06257 30.0095 3.68511 29.9925 3.36928C29.9131 1.89639 28.9737 0.662758 27.5452 0.15541C27.2215 0.0404661 27.0501 0.0202542 26.4028 0.0207229C25.7254 0.021133 25.5975 0.0379469 25.2462 0.172634C24.3982 0.497724 24.3993 0.496845 19.5922 5.28701L15.0079 9.85525L10.4237 5.28701C5.60983 0.490049 5.60959 0.489815 4.76971 0.176911C4.26881 -0.00962426 3.27825 -0.05825 2.74026 0.0773162Z" fill="#5CC7FB"/>
</svg>
