<svg width="60" height="60" viewBox="0 0 60 60" fill="none" xmlns="http://www.w3.org/2000/svg">
<path fill-rule="evenodd" clip-rule="evenodd" d="M26.4859 0.157133C17.6352 1.23249 9.80896 6.0853 4.88703 13.5498C-2.00697 24.0053 -1.57097 37.8971 5.96602 47.9248C11.7138 55.572 20.4748 59.9586 30.0001 59.9586C39.5336 59.9586 48.2812 55.5781 54.0361 47.9222C61.5748 37.8933 62.0062 24.0059 55.1042 13.5363C50.1645 6.04337 42.3055 1.19536 33.4115 0.155024C31.6372 -0.0525503 28.2026 -0.051496 26.4859 0.157133ZM18.9303 16.5097C19.3287 16.6171 20.1921 17.4276 24.6995 21.9252L30.0001 27.2141L35.3008 21.9243C39.9748 17.2599 40.6602 16.6191 41.0993 16.5037C42.5201 16.1305 43.84 17.4505 43.4668 18.8713C43.3514 19.3103 42.7107 19.9957 38.0462 24.6698L32.7565 29.9704L38.0462 35.2711C42.7107 39.9451 43.3514 40.6305 43.4668 41.0696C43.84 42.4904 42.5201 43.8103 41.0993 43.4371C40.6602 43.3217 39.9748 42.681 35.3008 38.0165L30.0001 32.7268L24.6995 38.0165C20.0254 42.681 19.34 43.3217 18.901 43.4371C17.4802 43.8103 16.1602 42.4904 16.5335 41.0696C16.6488 40.6305 17.2896 39.9451 21.9541 35.2711L27.2438 29.9704L21.9541 24.6698C17.2896 19.9957 16.6488 19.3103 16.5335 18.8713C16.2794 17.904 16.8158 16.8914 17.7589 16.558C18.3346 16.3544 18.3518 16.3537 18.9303 16.5097Z" fill="#C44141"/>
</svg>
