<svg width="54" height="54" viewBox="0 0 54 54" fill="none" xmlns="http://www.w3.org/2000/svg">
<g clip-path="url(#clip0_0_66)">
<path d="M26.9823 53.9999C11.9438 53.9387 -0.0828551 41.8294 -0.000371709 26.7991C0.0794509 12.088 12.0103 -0.0240287 27.0249 -8.66361e-05C42.263 0.0238554 54.114 12.4418 53.997 27.2087C53.8799 41.8746 42.005 53.9653 26.9823 53.9999ZM27.7513 9.83212C23.5526 9.83212 19.354 9.82946 15.1553 9.83744C14.7109 9.83744 14.2639 9.88 13.8276 9.95449C10.6666 10.5025 8.55661 13.7506 9.32025 16.8711C9.98544 19.5898 12.2471 21.3137 15.1686 21.3137C23.5553 21.3163 31.942 21.3137 40.3287 21.311C40.7411 21.311 41.1588 21.2791 41.5633 21.2099C45.7619 20.497 47.7442 15.6155 45.2218 12.1917C44.0591 10.6142 42.4573 9.8401 40.507 9.83478C36.2551 9.81882 32.0032 9.82946 27.7513 9.82946V9.83212ZM24.5823 24.9502C22.0413 24.9502 19.5003 24.9422 16.9619 24.9582C16.467 24.9608 15.9588 25.0034 15.4799 25.1151C12.8404 25.7323 11.0604 27.9642 11.0098 30.6777C10.9806 32.2313 11.087 33.7742 11.3211 35.3118C11.6378 37.3894 12.1779 39.3979 13.1145 41.2867C14.1336 43.3377 15.5331 45.0509 17.55 46.2054C18.2205 46.5885 18.9495 46.3012 19.056 45.543C19.1491 44.8993 19.1251 44.2315 19.0985 43.5771C19.0506 42.4013 18.9096 41.2255 18.9016 40.0497C18.8963 38.8978 19.1038 37.7725 19.6865 36.7403C19.8302 36.485 19.9872 36.4238 20.2559 36.4238C24.2311 36.4318 28.2063 36.4318 32.1814 36.4238C32.5832 36.4238 32.9877 36.3865 33.3841 36.32C37.0719 35.7002 39.1925 31.6886 37.5881 28.2968C36.5504 26.1047 34.7438 24.9928 32.3305 24.9555C29.7469 24.913 27.1633 24.9449 24.5823 24.9449V24.9502Z" fill="#E64444"/>
<path d="M27.7517 9.82952C32.0035 9.82952 36.2554 9.81888 40.5073 9.83484C42.4576 9.84283 44.0594 10.6143 45.2222 12.1918C47.7472 15.6155 45.7623 20.497 41.5636 21.21C41.1565 21.2792 40.7415 21.3111 40.329 21.3111C31.9424 21.3164 23.5557 21.3164 15.169 21.3137C12.2474 21.3137 9.98581 19.5899 9.32062 16.8712C8.55698 13.748 10.667 10.4999 13.8279 9.95455C14.2643 9.88007 14.714 9.8375 15.1557 9.8375C19.3543 9.82952 23.553 9.83218 27.7517 9.83218V9.82952Z" fill="white"/>
<path d="M24.5827 24.9476C27.1663 24.9476 29.7499 24.9157 32.3308 24.9583C34.7441 24.9982 36.5508 26.1102 37.5885 28.2995C39.1929 31.6887 37.0723 35.7003 33.3845 36.3228C32.988 36.3893 32.5836 36.4265 32.1818 36.4265C28.2067 36.4345 24.2315 36.4345 20.2563 36.4265C19.9876 36.4265 19.8306 36.4877 19.6869 36.7431C19.1042 37.7753 18.8967 38.9006 18.902 40.0524C18.9073 41.2283 19.0483 42.4041 19.0989 43.5799C19.1255 44.2343 19.1495 44.902 19.0563 45.5458C18.9472 46.304 18.2182 46.5913 17.5503 46.2082C15.5335 45.0537 14.1339 43.3405 13.1149 41.2894C12.1783 39.4007 11.6381 37.3895 11.3215 35.3146C11.0874 33.7796 10.9809 32.234 11.0102 30.6804C11.0634 27.967 12.8408 25.7351 15.4803 25.1179C15.9619 25.0062 16.4674 24.9636 16.9623 24.961C19.5033 24.945 22.0444 24.953 24.5827 24.953V24.9476Z" fill="white"/>
</g>
<defs>
<clipPath id="clip0_0_66">
<rect width="54" height="54" fill="white"/>
</clipPath>
</defs>
</svg>
