<svg width="60" height="60" viewBox="0 0 60 60" fill="none" xmlns="http://www.w3.org/2000/svg">
<path fill-rule="evenodd" clip-rule="evenodd" d="M27.8364 0.0611653C16.3111 0.944871 6.26069 8.35428 2.07813 19.0511C-2.30984 30.2733 0.37478 42.878 8.96194 51.372C12.9159 55.283 18.0016 58.0713 23.4143 59.2959C27.632 60.25 32.4099 60.2455 36.6795 59.2832C43.0387 57.85 49.2184 54.0053 53.2949 48.9458C57.7202 43.4537 60 37.0149 60 30.0095C60 23.9287 58.3361 18.407 54.9971 13.407C50.1546 6.15566 42.4418 1.34149 33.9238 0.253483C32.0321 0.0117717 29.5169 -0.067576 27.8364 0.0611653ZM48.3585 15.1567C49.8714 16.1868 50.0652 16.3447 50.3064 16.7423C50.6328 17.2806 50.7119 17.8149 50.5541 18.4149C50.4279 18.894 49.2042 20.1574 37.8009 31.5813C29.0886 40.3093 25.0358 44.2886 24.698 44.4467C24.1451 44.7053 23.5916 44.7415 23.086 44.5518C22.6947 44.405 13.7094 35.504 13.4414 34.9978C13.3451 34.8161 13.2665 34.3704 13.2665 34.0074C13.2665 33.4735 13.3335 33.256 13.6164 32.8704C14.2156 32.0536 15.6223 30.7904 16.1117 30.6295C16.6523 30.4517 17.3597 30.5428 17.829 30.8506C18.0103 30.9696 18.9888 32.0984 20.0036 33.3592C22.2406 36.1387 22.636 36.4261 23.8013 36.121C24.2797 35.9958 25.3636 34.9513 34.9679 25.3596C40.8181 19.5171 45.7422 14.683 45.9103 14.6174C46.0784 14.5516 46.4752 14.4943 46.792 14.49C47.2953 14.4833 47.493 14.5674 48.3585 15.1567Z" fill="#6DD176"/>
</svg>
