<svg width="40" height="37" viewBox="0 0 40 37" fill="none" xmlns="http://www.w3.org/2000/svg">
<path fill-rule="evenodd" clip-rule="evenodd" d="M34.044 0.312237C33.3964 0.7022 32.685 1.20559 31.121 2.38073C25.5837 6.54096 19.3017 12.8014 13.9233 19.5192C13.2906 20.3096 12.8327 20.8075 12.772 20.7716C12.7164 20.7387 10.7679 19.3837 8.44196 17.7604C6.11598 16.1371 4.12539 14.7622 4.01846 14.7052C3.44634 14.3998 3.05522 14.6564 1.17067 16.5727C0.0449407 17.7173 -0.121639 17.9938 0.0659524 18.4055C0.123556 18.532 1.04264 19.8411 2.10845 21.3148C6.0671 26.7887 9.82624 32.2586 11.5616 35.0702C12.4139 36.4511 12.6353 36.6814 13.1104 36.6814C13.2344 36.6814 13.4527 36.5712 13.5954 36.4366C13.7381 36.302 14.5743 34.9898 15.4535 33.5208C20.6837 24.7823 26.751 16.0523 31.8378 9.94627C34.1081 7.22099 35.4587 5.73886 37.7274 3.48304C39.9376 1.28545 40 1.21369 40 0.86967C40 0.583164 39.9451 0.466976 39.7112 0.258016L39.4224 0H36.9925H34.5625L34.044 0.312237Z" fill="white"/>
</svg>
