<svg width="140" height="34" viewBox="0 0 140 34" fill="none" xmlns="http://www.w3.org/2000/svg">
<g clip-path="url(#clip0_765_19)">
<path d="M36.7855 11.97H50.9585V14.567H45.3865V29.169H42.3205V14.567H36.7725V11.969H36.7845L36.7855 11.97ZM50.3535 16.715H52.9735V19.119H53.0225C53.1095 18.779 53.2695 18.451 53.5045 18.135C54.0069 17.4577 54.687 16.9327 55.4695 16.618C55.8669 16.4605 56.29 16.3781 56.7175 16.375C57.0375 16.375 57.2735 16.387 57.3975 16.4C57.5205 16.412 57.6435 16.436 57.7795 16.448V19.094C57.5788 19.0589 57.377 19.0305 57.1745 19.009C56.9733 18.9852 56.771 18.9732 56.5685 18.973C56.0985 18.973 55.6545 19.07 55.2345 19.253C54.8145 19.434 54.4555 19.713 54.1475 20.066C53.8188 20.4607 53.5671 20.9135 53.4055 21.401C53.2205 21.935 53.1335 22.541 53.1335 23.234V29.157H50.3415V16.715H50.3535ZM70.6185 29.17H67.8755V27.434H67.8255C67.4795 28.066 66.9735 28.564 66.2935 28.94C65.6135 29.316 64.9215 29.51 64.2175 29.51C62.5495 29.51 61.3375 29.11 60.5975 28.296C59.8555 27.483 59.4845 26.257 59.4845 24.618V16.716H62.2775V24.351C62.2775 25.444 62.4875 26.221 62.9205 26.67C63.3405 27.119 63.9455 27.35 64.7115 27.35C65.3045 27.35 65.7865 27.265 66.1815 27.082C66.5775 26.9 66.8985 26.67 67.1335 26.366C67.3805 26.075 67.5535 25.711 67.6655 25.298C67.7755 24.885 67.8255 24.436 67.8255 23.951V16.728H70.6185V29.17ZM75.3755 25.177C75.4625 25.977 75.7705 26.537 76.3025 26.864C76.8455 27.18 77.4885 27.35 78.2425 27.35C78.5025 27.35 78.7985 27.325 79.1325 27.289C79.4655 27.252 79.7865 27.167 80.0715 27.059C80.3675 26.949 80.6015 26.779 80.7995 26.561C80.9855 26.341 81.0715 26.063 81.0595 25.711C81.0579 25.5476 81.0219 25.3864 80.9538 25.2379C80.8857 25.0894 80.7872 24.9569 80.6645 24.849C80.4165 24.619 80.1085 24.449 79.7245 24.303C79.2967 24.1548 78.8589 24.0372 78.4145 23.951C77.9205 23.854 77.4265 23.744 76.9205 23.635C76.4107 23.5247 75.9073 23.3868 75.4125 23.222C74.9484 23.0733 74.5106 22.8522 74.1155 22.567C73.7304 22.2983 73.4164 21.94 73.2005 21.523C72.9665 21.098 72.8545 20.576 72.8545 19.945C72.8545 19.265 73.0275 18.707 73.3615 18.245C73.6984 17.7869 74.1333 17.4097 74.6345 17.141C75.1731 16.8563 75.7521 16.6556 76.3515 16.546C76.9815 16.437 77.5875 16.376 78.1555 16.376C78.8105 16.376 79.4405 16.449 80.0345 16.583C80.6095 16.7061 81.1577 16.9321 81.6525 17.25C82.1345 17.554 82.5295 17.954 82.8515 18.44C83.1725 18.925 83.3705 19.52 83.4565 20.212H80.5405C80.4045 19.557 80.1075 19.108 79.6265 18.889C79.1445 18.659 78.5885 18.549 77.9705 18.549C77.7725 18.549 77.5375 18.561 77.2665 18.598C77.0053 18.6327 76.7484 18.6937 76.4995 18.78C76.272 18.8638 76.0655 18.9962 75.8945 19.168C75.8114 19.2576 75.7469 19.3628 75.7045 19.4774C75.6621 19.592 75.6427 19.7139 75.6475 19.836C75.6475 20.176 75.7705 20.443 76.0055 20.649C76.2405 20.855 76.5495 21.025 76.9325 21.171C77.3155 21.305 77.7485 21.426 78.2425 21.523C78.7365 21.62 79.2425 21.729 79.7625 21.839C80.2685 21.948 80.7625 22.094 81.2575 22.251C81.7515 22.409 82.1835 22.628 82.5675 22.907C82.9505 23.186 83.2595 23.526 83.4935 23.939C83.7285 24.351 83.8525 24.873 83.8525 25.48C83.8525 26.22 83.6795 26.84 83.3325 27.362C82.9875 27.872 82.5425 28.296 81.9985 28.612C81.429 28.94 80.8119 29.1775 80.1695 29.316C79.5159 29.4598 78.8487 29.5329 78.1795 29.534C77.43 29.5424 76.6826 29.4527 75.9565 29.267C75.2765 29.085 74.6835 28.818 74.1895 28.467C73.7012 28.1122 73.2998 27.6513 73.0155 27.119C72.7315 26.585 72.5825 25.941 72.5585 25.201H75.3755V25.177ZM84.5935 16.717H86.7065V12.977H89.4995V16.717H92.0195V18.767H89.5005V25.42C89.5005 25.71 89.5125 25.954 89.5375 26.172C89.5615 26.379 89.6235 26.561 89.7105 26.706C89.805 26.8583 89.9485 26.974 90.1175 27.034C90.3035 27.107 90.5375 27.144 90.8595 27.144C91.0565 27.144 91.2545 27.144 91.4525 27.131C91.6505 27.119 91.8475 27.095 92.0455 27.046V29.17C91.7365 29.207 91.4275 29.231 91.1435 29.267C90.8441 29.3018 90.5428 29.3182 90.2415 29.316C89.5005 29.316 88.9075 29.243 88.4615 29.11C88.0175 28.976 87.6585 28.77 87.4115 28.503C87.1515 28.236 86.9915 27.908 86.8925 27.507C86.7962 27.056 86.7426 26.597 86.7325 26.136V18.79H84.6195V16.714H84.5945L84.5935 16.717ZM93.9965 16.717H96.6415V18.403H96.6915C97.0855 17.675 97.6295 17.165 98.3335 16.85C99.0531 16.5301 99.833 16.3684 100.62 16.376C101.62 16.376 102.485 16.546 103.227 16.898C103.968 17.238 104.586 17.712 105.08 18.318C105.574 18.925 105.933 19.629 106.18 20.431C106.432 21.2653 106.557 22.1326 106.551 23.004C106.551 23.841 106.44 24.654 106.217 25.432C106.013 26.1824 105.674 26.8895 105.216 27.519C104.767 28.1258 104.184 28.6204 103.511 28.964C102.819 29.328 102.016 29.51 101.077 29.51C100.667 29.5095 100.257 29.4727 99.8535 29.4C99.4505 29.3274 99.0571 29.2096 98.6805 29.049C98.3064 28.8929 97.9565 28.6841 97.6415 28.429C97.3305 28.181 97.0597 27.8865 96.8385 27.556H96.7885V33.771H93.9965V16.715V16.717ZM103.758 22.955C103.759 22.4015 103.684 21.8504 103.536 21.317C103.4 20.8116 103.173 20.3347 102.868 19.909C102.579 19.5039 102.204 19.1679 101.769 18.925C101.303 18.6729 100.78 18.5435 100.249 18.549C99.0755 18.549 98.1855 18.949 97.5925 19.751C96.9995 20.552 96.7025 21.621 96.7025 22.955C96.7025 23.586 96.7775 24.169 96.9375 24.703C97.0975 25.237 97.3205 25.699 97.6415 26.087C97.9515 26.476 98.3215 26.779 98.7545 26.997C99.1865 27.228 99.6935 27.337 100.261 27.337C100.904 27.337 101.435 27.204 101.88 26.949C102.311 26.7011 102.683 26.3614 102.967 25.954C103.251 25.541 103.462 25.079 103.585 24.558C103.699 24.0312 103.757 23.4939 103.758 22.955ZM108.688 11.97H111.481V14.568H108.688V11.97ZM108.688 16.716H111.481V29.17H108.688V16.716ZM113.977 11.97H116.77V29.17H113.977V11.97ZM125.333 29.51C124.319 29.51 123.417 29.34 122.627 29.013C121.87 28.7024 121.185 28.2395 120.613 27.653C120.058 27.0547 119.633 26.3478 119.364 25.577C119.071 24.7261 118.924 23.8312 118.932 22.931C118.932 21.984 119.08 21.111 119.364 20.309C119.633 19.5385 120.058 18.832 120.613 18.234C121.156 17.651 121.836 17.202 122.627 16.874C123.417 16.546 124.319 16.376 125.333 16.376C126.346 16.376 127.248 16.546 128.039 16.874C128.83 17.202 129.497 17.664 130.053 18.234C130.609 18.8318 131.034 19.5384 131.301 20.309C131.585 21.11 131.733 21.984 131.733 22.931C131.733 23.891 131.585 24.776 131.301 25.577C131.034 26.348 130.609 27.0549 130.053 27.653C129.509 28.236 128.83 28.685 128.039 29.013C127.248 29.34 126.346 29.51 125.333 29.51ZM125.333 27.337C125.951 27.337 126.494 27.204 126.951 26.949C127.397 26.701 127.781 26.3566 128.076 25.941C128.372 25.529 128.582 25.055 128.731 24.533C128.867 24.011 128.941 23.477 128.941 22.931C128.941 22.397 128.867 21.875 128.731 21.341C128.604 20.8345 128.382 20.3567 128.076 19.933C127.781 19.5213 127.396 19.1813 126.951 18.938C126.494 18.683 125.951 18.549 125.333 18.549C124.715 18.549 124.171 18.683 123.714 18.938C123.273 19.185 122.889 19.5244 122.59 19.933C122.289 20.3592 122.068 20.8362 121.935 21.341C121.799 21.86 121.728 22.3942 121.724 22.931C121.724 23.477 121.799 24.011 121.935 24.533C122.071 25.055 122.293 25.529 122.59 25.941C122.886 26.354 123.257 26.694 123.714 26.949C124.171 27.216 124.715 27.337 125.333 27.337ZM132.549 16.717H134.662V12.977H137.455V16.717H139.975V18.767H137.455V25.42C137.455 25.71 137.467 25.954 137.491 26.172C137.516 26.379 137.578 26.561 137.665 26.706C137.76 26.8585 137.903 26.9742 138.072 27.034C138.258 27.107 138.492 27.144 138.814 27.144C139.011 27.144 139.209 27.144 139.407 27.131C139.605 27.119 139.802 27.095 140 27.046V29.17C139.691 29.207 139.382 29.231 139.098 29.267C138.799 29.3018 138.498 29.3181 138.196 29.316C137.455 29.316 136.861 29.243 136.416 29.11C135.972 28.976 135.613 28.77 135.366 28.503C135.107 28.236 134.946 27.908 134.847 27.507C134.751 27.056 134.698 26.597 134.687 26.136V18.79H132.574V16.714H132.549V16.717Z" fill="black"/>
<path d="M33.523 11.969H20.722L16.768 0L12.8 11.97L0 11.957L10.367 19.361L6.401 31.317L16.768 23.925L27.123 31.317L23.169 19.361L33.523 11.969Z" fill="#04DA8D"/>
<path d="M24.0576 22.0691L23.1676 19.3621L16.7676 23.9261L24.0576 22.0691Z" fill="#126849"/>
</g>
<defs>
<clipPath id="clip0_765_19">
<rect width="140" height="34" fill="white"/>
</clipPath>
</defs>
</svg>
